PathFileType	4	(X/Y/Z)	18_1_39_p0_0-540_filt_butterworth.trc
DataRate	CameraRate	NumFrames	NumMarkers	Units	OrigDataRate	OrigDataStartFrame	OrigNumFrames
58.0	58.0	7	27	m	58.0	202	540
Frame#	Time	RHip			RKnee			RAnkle			RBigToe			RSmallToe			RHeel			LHip			LKnee			LAnkle			LBigToe			LSmallToe			LHeel			Neck			Head			Nose			RShoulder			RElbow			RWrist			RThumb			RIndex			RPinky			LShoulder			LElbow			LWrist			LThumb			LIndex			LPinky			
		X1	Y1	Z1	X2	Y2	Z2	X3	Y3	Z3	X4	Y4	Z4	X5	Y5	Z5	X6	Y6	Z6	X7	Y7	Z7	X8	Y8	Z8	X9	Y9	Z9	X10	Y10	Z10	X11	Y11	Z11	X12	Y12	Z12	X13	Y13	Z13	X14	Y14	Z14	X15	Y15	Z15	X16	Y16	Z16	X17	Y17	Z17	X18	Y18	Z18	X19	Y19	Z19	X20	Y20	Z20	X21	Y21	Z21	X22	Y22	Z22	X23	Y23	Z23	X24	Y24	Z24	X25	Y25	Z25	X26	Y26	Z26	X27	Y27	Z27	
202	3.4827586206896552	0.24460504432455335	0.4139903314508875	1.2030860389918119	0.22146170600623838	0.444077960182554	1.614433018312957	0.21465697590216515	0.5747198764424982	2.0203189750057406	0.20775156403279757	0.3801402783269123	2.028524997254484	0.26745263629357235	0.4252526519973486	2.042832453090624	0.20953686436082267	0.6509403835569981	2.0810154812782744	0.045642901978488686	0.41974507437962805	1.2022749937615123	0.03989060407111608	0.4944554336069623	1.645752760196127	0.04240872231508638	0.5555620728715926	2.0236766058860325	0.08508675178940328	0.39001692231291096	2.038284454260986	0.019875569729927947	0.40987465892456254	2.0404166708022276	0.05323086785501255	0.6005102262238172	2.057995156427765	0.18429802266195072	0.37524253342263575	0.6800750262073344	0.1999839306297762	0.28726880650225023	0.4661456344965121	0.19115949731385493	0.2697004926634655	0.5726724374058472	0.3001852471733106	0.3230237695916389	0.7507405179665119	0.1796790683814187	0.1347976236078691	0.7733739210166792	0.09732445764120407	0.20197133042732948	0.5909732653750295	0.03829882209134133	0.16924286948656556	0.5097604375384975	0.00835519927809773	0.22595838645400593	0.47411370358487087	0.03829925039632546	0.14350679844647363	0.5087806592963001	0.04294499003915139	0.3959002883735519	0.7103630220473031	0.07736372348828857	0.1260938391345962	0.7741880437742419	0.06689404853668278	0.18586278486125776	0.578927951289861	0.018199778952662463	0.22291447847954488	0.5322185226842306	0.01248414360675238	0.23759562082578473	0.5001114558459406	0.011750245901118388	0.19571655723329923	0.4968290987336925
203	3.5	0.24479280205869888	0.41251755189636563	1.2018980952849996	0.22204241737592825	0.4459132517012565	1.6168367728275004	0.21494825699777942	0.5743125856549592	2.0190553917640752	0.20776605526187897	0.3802217492599904	2.0286281011728446	0.26706215120047383	0.4254892363106887	2.0429883540556024	0.2092282354242423	0.6498568738805677	2.0776036418876305	0.045876492174865016	0.41912789069989886	1.202205211271951	0.04033103996298336	0.4955501827751827	1.646759079706339	0.04239039765048746	0.5555737548945909	2.023720880435452	0.08237573952358582	0.39330817436394816	2.039916567796287	0.019824970614854807	0.4097506552663364	2.040100723851447	0.05324001555850097	0.6001423282096684	2.0579076459756163	0.18421367955109055	0.3752155402091556	0.681370852567129	0.20010049218816736	0.2874577929269051	0.46619500396890684	0.18937223876250633	0.26982441353785463	0.5732711403475592	0.30008096222654673	0.3233054430640845	0.7514409901338438	0.1818408669088178	0.12811504711108515	0.7703875676555921	0.09595502235952463	0.2018231902484136	0.5894222833872179	0.030754498240277022	0.18385193182476395	0.5076910139961954	0.004062274883147689	0.23765700632092085	0.4763353511433171	0.028797678389797375	0.1700288141113186	0.510153952404351	0.041755556601992344	0.3955523940376667	0.7114398615771503	0.07393006819380733	0.12920828186871167	0.7746825067967137	0.0676407268335786	0.18665328759882677	0.5788462555894152	0.016007136657029478	0.2236210195747085	0.5311897439970947	0.01346425937089255	0.23846276599332422	0.5001077312066418	0.01347402957815295	0.19364083599278265	0.4966284689680419
204	3.5172413793103448	0.24437120751910654	0.4083792129109927	1.1995098537693216	0.22318595446025544	0.44976560401080123	1.620100428157707	0.21532117425258954	0.5738074814981609	2.0174059437067546	0.20782954255738476	0.3802934256536057	2.0287786072148513	0.2659257784013327	0.4256631887491583	2.043149103366244	0.20868742879940325	0.6476185285338814	2.07546135386263	0.046170349679596275	0.41883190999348324	1.2020515413474997	0.04061359708742177	0.49643585975696236	1.6471801959888819	0.04236946021028252	0.5555993856264865	2.0237842107007267	0.07871753149241312	0.3976083789700021	2.042071037137137	0.01985689118318531	0.40943777954149707	2.039718897582639	0.05328394888241705	0.5994627974299822	2.058202276236514	0.1838073562870441	0.3769959322700494	0.6824746528961063	0.2003105519371251	0.2876245020922179	0.4662869662431053	0.18740617156250267	0.270268494849341	0.5738320699746615	0.3000275219814195	0.3238343809624836	0.752397116565892	0.18244500160029206	0.12066932884264474	0.7666219517175472	0.09373812555063991	0.1996295526111433	0.5878895033950241	0.02237896517673349	0.20163619431433677	0.5062867862808852	0.0014900542329621099	0.2451155163891866	0.4792245064058587	0.023817723596627188	0.18660095316397568	0.511609727368964	0.04085569257518386	0.39516609650924694	0.7126820398321567	0.06924883510867076	0.13315517464312304	0.7752537688576322	0.06817582880330283	0.18723607855666724	0.5788221438493011	0.014779204094412825	0.22129986572525717	0.5301976334658794	0.015499666839532548	0.23940086418871404	0.5013768571852285	0.01437866493356333	0.19249112132847868	0.4967465011247215
205	3.534482758620689	0.24407850576562334	0.4032607000261931	1.1976428112766708	0.22454765030165846	0.4547001569074689	1.6226500628218314	0.21558253164508728	0.5734847990778295	2.016204690985478	0.20789625311909482	0.38034643587628647	2.0288968951180064	0.26433523936179065	0.42561028760171005	2.0432020042555568	0.20802400641109248	0.6431865586436061	2.0747510903058926	0.04624511454527811	0.41917301925319705	1.2020263357274594	0.04053395625895902	0.4966730148392249	1.6471471003242033	0.04235632189784016	0.5556373883483414	2.023833090486279	0.07609943392487777	0.4007061720559271	2.0436528030090844	0.01985834833377136	0.4095337270779903	2.039832683374205	0.053376805092427135	0.5987450900102272	2.0591100169715864	0.1830953155428339	0.3798366580107827	0.6830554725296067	0.20010347243641888	0.2864852438257397	0.4663634565883813	0.186077493700581	0.27186601179339015	0.574192341356567	0.29998937134998516	0.3240929374791014	0.7531272421815468	0.18188784274182318	0.11621938342278415	0.763834711070665	0.09154230442660685	0.19829008115207378	0.5870056024792984	0.017136469951209658	0.21451533873217415	0.5065715394534909	0.00048736031741449047	0.24924486196849366	0.4819255537784722	0.022432335387793274	0.19356033357013702	0.5125070565474776	0.04046617075351314	0.395051772863213	0.7133003041092543	0.0656170614120502	0.13604880235084577	0.775630556335424	0.06840502701434781	0.18759440464541216	0.5790672485451757	0.014580550668641633	0.2176670489139427	0.5305340305515094	0.017823916681065106	0.23981553688585028	0.5035298441794125	0.013564367998687368	0.19452687253745196	0.4973325775820469
206	3.5517241379310347	0.24404986750492624	0.3997775024349301	1.1979992525992504	0.22553475641657073	0.458547904958131	1.6236431775805698	0.21566117785668737	0.5734457847954176	2.0158513322888267	0.20792220554179186	0.3804084016225872	2.0289436024052403	0.2630858225166384	0.42546454181196464	2.043182488711139	0.20718600232303655	0.6384225464759197	2.075278173367384	0.046034724013905376	0.4197443742758754	1.2027216937773786	0.04010882371840969	0.4961785024139152	1.6466836819608721	0.042353034879800626	0.5556709636859949	2.0238500466141485	0.0758420091372265	0.4018597101643659	2.0442805118813654	0.019438970384357827	0.411482436403931	2.0413966230790117	0.05349948625057493	0.5983389193632669	2.060343208226148	0.18241236676122205	0.3818966736696388	0.683230045133192	0.19926557903060133	0.2833877635504186	0.4661459984132033	0.18487204048104072	0.27604354575761214	0.5743210913552282	0.30000560845498364	0.32400983832663255	0.7534125622866995	0.18113176176355084	0.11689758010116075	0.7637175314999718	0.09052378880537956	0.1982393033982981	0.5867601351429633	0.01638538429576925	0.21868683913923084	0.5086280816965537	0.00011751847264609503	0.2513471702892795	0.4842843657610123	0.022605299215777995	0.19421748129755997	0.5133332286428747	0.040414413746825084	0.395311851806867	0.7130545927382415	0.06420884060638998	0.1369916829591578	0.7756324959987713	0.0684676647141322	0.18790739790314895	0.5796229626550624	0.014935551129686794	0.21570429107151823	0.5329349297674166	0.019373381805689677	0.23958195355181086	0.5056571052957398	0.012168282484289457	0.19833383917504055	0.4983508365499128
207	3.5689655172413794	0.24434294927462707	0.3998016037782911	1.2008741983001288	0.22590397337203755	0.4599950907360263	1.623230649047175	0.2156438157999606	0.5735463185881506	2.016046342440558	0.20792040260350303	0.3804740576041533	2.0289532879448453	0.262585135085197	0.42577911823627534	2.043351441519023	0.20644875080758962	0.6371143317085147	2.076833614035038	0.04575994172445648	0.4198659585447688	1.2046046590335173	0.03963150347611723	0.4952234866540124	1.6456757312000976	0.04235327358978981	0.5556883327459707	2.0238485566505258	0.07768668043221183	0.40247977476855834	2.0446253031762867	0.018241075409450865	0.41618014385113233	2.044655876972561	0.05360230700926635	0.5983015971840414	2.0612850192167587	0.18200401363538699	0.3807641211662355	0.6832143797602296	0.19808755495469016	0.27938995096040375	0.4653419113213329	0.1830056373094333	0.2828816190184453	0.5742418698058125	0.30006974494148775	0.3237755179536199	0.7533162440772558	0.1810136904201342	0.12214486759410348	0.7660756742365551	0.09045517786716284	0.1986786737265563	0.586814826887949	0.0171907748283345	0.21855791920361112	0.5114348898654371	0.00011410859250447761	0.251806193666167	0.48727493082331125	0.02307081720097675	0.19148356853285878	0.51479297736904	0.04042667896387849	0.3953382150182915	0.7126371738710041	0.06433733383296387	0.13655943540678106	0.7750777008298276	0.06839678029742931	0.1880230863303305	0.5802157449796574	0.015255096098218604	0.21774446416491322	0.5358892894453791	0.018891630954110304	0.23944515307125008	0.5066921528515183	0.011464319069611486	0.20136886623674427	0.49952782720508304
208	3.586206896551724	0.2451354447571299	0.40343224213427575	1.2048080666615248	0.2257679316335215	0.45877366187441326	1.6218300602264422	0.2156126434802761	0.5735477583953779	2.016190813817769	0.20792141110170817	0.3805083592088407	2.0289666089972656	0.2626692592266169	0.4272877869387287	2.04407717705924	0.20647058648673766	0.6400083448786851	2.078737698121535	0.045610845549910295	0.4194182755398045	1.2071091057043482	0.03935942155932465	0.4943781097532439	1.6446131947514777	0.04235241149818875	0.5556887017437079	2.0238489585671937	0.08025614352025268	0.40442795141177995	2.0455857827988146	0.016555385619388137	0.4218655079378327	2.047995276019549	0.05366162390551101	0.5984126675760183	2.061683273364042	0.18174653506621183	0.3754440321528195	0.6830691333364753	0.19717916323003215	0.27649957102769146	0.46414217992009477	0.1808551974061473	0.2898869484185748	0.5740446900188145	0.30013836516521564	0.3236145083051689	0.752760837970198	0.18153081303984772	0.12936824009132958	0.7686714715966446	0.09041696244158827	0.19907515632878142	0.5869726659255923	0.01607711791779254	0.22065324054487045	0.513666152278499	0.00047877991363662277	0.251617012101961	0.49118053819353574	0.02343212764413771	0.18766667801805184	0.5166571650430122	0.04015049433280878	0.39398115621692587	0.712685740139759	0.06493326085092582	0.1357412716400852	0.7738060261207218	0.06785517389474781	0.18698861374726372	0.5805798517060556	0.01467973022358472	0.2236178215284103	0.5373045090208838	0.015735817376123756	0.23988710739427377	0.5057715008469434	0.011716982916182887	0.20226027836678778	0.5007247357744478
